<svg width="64" height="23" viewBox="0 0 64 23" fill="none" xmlns="http://www.w3.org/2000/svg">
<path d="M4.08285 14.6267V22.247H0V0.598841H7.14878C8.61598 0.598841 9.88586 0.768512 10.9584 1.10786C12.031 1.4472 12.9164 1.92128 13.6146 2.5301C14.3127 3.13893 14.8288 3.86752 15.1627 4.71587C15.4966 5.56423 15.6636 6.49244 15.6636 7.50049C15.6636 8.54846 15.4865 9.51159 15.1323 10.3899C14.7782 11.2582 14.247 12.0068 13.5387 12.6355C12.8304 13.2643 11.945 13.7534 10.8825 14.1027C9.82009 14.452 8.5755 14.6267 7.14878 14.6267H4.08285ZM4.08285 11.4828H7.14878C7.89756 11.4828 8.55021 11.393 9.10673 11.2133C9.66325 11.0237 10.1236 10.7592 10.4879 10.4198C10.8522 10.0705 11.1254 9.65132 11.3075 9.16227C11.4897 8.66324 11.5807 8.10931 11.5807 7.50049C11.5807 6.92161 11.4897 6.39762 11.3075 5.92853C11.1254 5.45944 10.8522 5.06021 10.4879 4.73084C10.1236 4.40148 9.66325 4.15197 9.10673 3.98229C8.55021 3.80264 7.89756 3.71282 7.14878 3.71282H4.08285V11.4828Z" fill="white"/>
<path d="M18.0161 22.247V6.88667H20.2169C20.6014 6.88667 20.8696 6.95654 21.0214 7.09627C21.1731 7.236 21.2743 7.47553 21.3249 7.81488L21.5526 9.67128C22.1091 8.72312 22.7618 7.97457 23.5105 7.42563C24.2593 6.87669 25.0991 6.60222 26.0301 6.60222C26.7991 6.60222 27.4365 6.77689 27.9425 7.12621L27.4568 9.89585C27.4264 10.0755 27.3607 10.2053 27.2595 10.2851C27.1583 10.355 27.0217 10.3899 26.8497 10.3899C26.6979 10.3899 26.4905 10.355 26.2274 10.2851C25.9643 10.2152 25.6152 10.1803 25.1801 10.1803C24.401 10.1803 23.7331 10.3949 23.1766 10.8241C22.6201 11.2432 22.1496 11.862 21.7651 12.6805V22.247H18.0161Z" fill="white"/>
<path d="M34.9153 22.4865C33.5695 22.4865 32.5324 22.1122 31.8038 21.3637C31.0753 20.6051 30.711 19.5621 30.711 18.2347V9.65631H29.1325C28.9301 9.65631 28.7531 9.59144 28.6013 9.46169C28.4596 9.33194 28.3888 9.13732 28.3888 8.87782V7.41066L30.8931 7.00644L31.6824 2.81455C31.7229 2.61494 31.8139 2.46024 31.9556 2.35045C32.1074 2.24066 32.2946 2.18577 32.5172 2.18577H34.4599V7.02141H38.558V9.65631H34.4599V17.9802C34.4599 18.4593 34.5814 18.8336 34.8242 19.103C35.0671 19.3725 35.3909 19.5073 35.7956 19.5073C36.0283 19.5073 36.2206 19.4823 36.3724 19.4324C36.5343 19.3725 36.6709 19.3126 36.7822 19.2527C36.9036 19.1929 37.0098 19.138 37.1009 19.0881C37.192 19.0282 37.283 18.9982 37.3741 18.9982C37.4854 18.9982 37.5765 19.0282 37.6473 19.0881C37.7181 19.138 37.794 19.2178 37.875 19.3276L38.9981 21.1241C38.4517 21.5733 37.8244 21.9126 37.1161 22.1422C36.4078 22.3717 35.6742 22.4865 34.9153 22.4865Z" fill="white"/>
<path d="M44.7268 0V12.7403H45.425C45.678 12.7403 45.8753 12.7054 46.017 12.6355C46.1586 12.5657 46.3104 12.4359 46.4723 12.2463L50.3426 7.53043C50.5147 7.33081 50.6968 7.17611 50.889 7.06633C51.0813 6.94656 51.3343 6.88667 51.6479 6.88667H55.0781L50.2364 12.5906C50.0644 12.8002 49.8873 12.9949 49.7052 13.1745C49.523 13.3442 49.3257 13.4939 49.1132 13.6236C49.3257 13.7733 49.5129 13.948 49.6748 14.1476C49.8367 14.3472 49.9986 14.5618 50.1605 14.7914L55.3513 22.247H51.9667C51.6732 22.247 51.4253 22.197 51.223 22.0972C51.0206 21.9974 50.8385 21.8278 50.6766 21.5882L46.7151 15.7645C46.5634 15.5349 46.4116 15.3852 46.2598 15.3154C46.108 15.2455 45.8804 15.2106 45.5768 15.2106H44.7268V22.247H40.9779V0H44.7268Z" fill="white"/>
<circle cx="61.4051" cy="19.8919" r="2.59459" fill="white"/>
</svg>
