<svg width="456" height="160" viewBox="0 0 456 160" fill="none" xmlns="http://www.w3.org/2000/svg">
<path d="M29.051 104.075V158.296H0V4.26098H50.8663C61.306 4.26098 70.3417 5.46826 77.9734 7.88282C85.6052 10.2974 91.905 13.6707 96.8728 18.0027C101.841 22.3347 105.513 27.5189 107.888 33.5553C110.264 39.5917 111.452 46.1962 111.452 53.3688C111.452 60.8256 110.192 67.6786 107.672 73.9281C105.153 80.1065 101.373 85.4328 96.3328 89.9068C91.293 94.3808 84.9932 97.8606 77.4335 100.346C69.8737 102.832 61.018 104.075 50.8663 104.075H29.051ZM29.051 81.7044H50.8663C56.1942 81.7044 60.838 81.0652 64.7979 79.7869C68.7577 78.4376 72.0336 76.5557 74.6255 74.1411C77.2175 71.6556 79.1614 68.6729 80.4574 65.1931C81.7533 61.6423 82.4013 57.7008 82.4013 53.3688C82.4013 49.2499 81.7533 45.5215 80.4574 42.1838C79.1614 38.846 77.2175 36.0053 74.6255 33.6618C72.0336 31.3182 68.7577 29.5428 64.7979 28.3356C60.838 27.0573 56.1942 26.4181 50.8663 26.4181H29.051V81.7044Z" fill="#191919"/>
<path d="M128.192 158.296V49.0013H143.851C146.587 49.0013 148.495 49.4984 149.575 50.4927C150.655 51.4869 151.375 53.1913 151.735 55.6059L153.355 68.8149C157.315 62.0684 161.959 56.7421 167.286 52.8362C172.614 48.9303 178.59 46.9774 185.214 46.9774C190.686 46.9774 195.222 48.2201 198.821 50.7057L195.366 70.4128C195.15 71.6911 194.682 72.6143 193.962 73.1824C193.242 73.6795 192.27 73.9281 191.046 73.9281C189.966 73.9281 188.49 73.6795 186.618 73.1824C184.746 72.6853 182.262 72.4368 179.166 72.4368C173.622 72.4368 168.87 73.9636 164.911 77.0173C160.951 80 157.603 84.403 154.867 90.2264V158.296H128.192Z" fill="#191919"/>
<path d="M248.436 160C238.86 160 231.48 157.337 226.296 152.011C221.113 146.613 218.521 139.192 218.521 129.747V68.7084H207.289C205.849 68.7084 204.589 68.2468 203.509 67.3236C202.501 66.4004 201.997 65.0155 201.997 63.1691V52.7297L219.817 49.8535L225.432 20.0266C225.72 18.6063 226.368 17.5055 227.376 16.7244C228.456 15.9432 229.788 15.5526 231.372 15.5526H245.196V49.9601H274.355V68.7084H245.196V127.936C245.196 131.345 246.06 134.008 247.788 135.925C249.516 137.843 251.82 138.802 254.699 138.802C256.355 138.802 257.723 138.624 258.803 138.269C259.955 137.843 260.927 137.417 261.719 136.991C262.583 136.565 263.339 136.174 263.987 135.819C264.635 135.393 265.283 135.18 265.931 135.18C266.723 135.18 267.371 135.393 267.875 135.819C268.379 136.174 268.919 136.742 269.495 137.523L277.487 150.306C273.599 153.502 269.135 155.917 264.095 157.55C259.055 159.183 253.836 160 248.436 160Z" fill="#191919"/>
<path d="M318.249 0V90.6525H323.216C325.016 90.6525 326.42 90.4039 327.428 89.9068C328.436 89.4097 329.516 88.4865 330.668 87.1372L358.207 53.5819C359.431 52.1616 360.727 51.0608 362.095 50.2796C363.463 49.4274 365.263 49.0013 367.495 49.0013H391.902L357.451 89.5872C356.227 91.0786 354.967 92.4634 353.671 93.7417C352.376 94.949 350.972 96.0142 349.46 96.9374C350.972 98.0027 352.304 99.2454 353.455 100.666C354.607 102.086 355.759 103.613 356.911 105.246L393.846 158.296H369.763C367.675 158.296 365.911 157.941 364.471 157.23C363.031 156.52 361.735 155.313 360.583 153.609L332.396 112.17C331.316 110.537 330.236 109.472 329.156 108.975C328.076 108.478 326.456 108.229 324.296 108.229H318.249V158.296H291.574V0H318.249Z" fill="#191919"/>
<circle cx="436.923" cy="141.538" r="18.4615" fill="#191919"/>
<path d="M10.1679 73.4261V92.4035H0V38.4913H17.8032C21.4571 38.4913 24.6196 38.9139 27.2907 39.759C29.9618 40.6041 32.1667 41.7847 33.9055 43.3009C35.6442 44.8171 36.9294 46.6316 37.761 48.7443C38.5925 50.8571 39.0083 53.1687 39.0083 55.6791C39.0083 58.2889 38.5673 60.6875 37.6854 62.8748C36.8034 65.0373 35.4804 66.9015 33.7165 68.4674C31.9526 70.0333 29.7476 71.2512 27.1017 72.1212C24.4558 72.9911 21.3563 73.4261 17.8032 73.4261H10.1679ZM10.1679 65.5965H17.8032C19.668 65.5965 21.2933 65.3728 22.6793 64.9254C24.0652 64.4532 25.2118 63.7945 26.1189 62.9494C27.0261 62.0794 27.7065 61.0355 28.1601 59.8176C28.6137 58.5748 28.8405 57.1953 28.8405 55.6791C28.8405 54.2375 28.6137 52.9325 28.1601 51.7643C27.7065 50.5961 27.0261 49.6019 26.1189 48.7816C25.2118 47.9614 24.0652 47.34 22.6793 46.9174C21.2933 46.47 19.668 46.2463 17.8032 46.2463H10.1679V65.5965Z" fill="white"/>
<path d="M44.8671 92.4035V54.1505H50.3479C51.3055 54.1505 51.9733 54.3245 52.3513 54.6724C52.7293 55.0204 52.9813 55.617 53.1073 56.462L53.6742 61.0852C55.0602 58.7239 56.6855 56.8597 58.5503 55.4927C60.415 54.1256 62.5065 53.4421 64.8249 53.4421C66.74 53.4421 68.3276 53.8771 69.5875 54.747L68.3779 61.6445C68.3024 62.0919 68.1386 62.415 67.8866 62.6138C67.6346 62.7878 67.2944 62.8748 66.866 62.8748C66.488 62.8748 65.9714 62.7878 65.3163 62.6138C64.6611 62.4399 63.7917 62.3529 62.7081 62.3529C60.7678 62.3529 59.1047 62.8873 57.7187 63.9561C56.3327 65 55.161 66.5411 54.2034 68.5792V92.4035H44.8671Z" fill="white"/>
<path d="M86.9525 93C83.601 93 81.0181 92.0679 79.2037 90.2037C77.3894 88.3147 76.4822 85.7173 76.4822 82.4114V61.0479H72.5512C72.0472 61.0479 71.6062 60.8864 71.2282 60.5632C70.8754 60.2401 70.699 59.7554 70.699 59.1092V55.4554L76.9358 54.4487L78.9014 44.0093C79.0022 43.5122 79.2289 43.1269 79.5817 42.8535C79.9597 42.5801 80.4259 42.4434 80.9803 42.4434H85.8185V54.486H96.0242V61.0479H85.8185V81.7776C85.8185 82.9707 86.1209 83.9028 86.7257 84.5739C87.3305 85.245 88.1368 85.5806 89.1448 85.5806C89.7244 85.5806 90.2032 85.5184 90.5812 85.3941C90.9844 85.245 91.3246 85.0959 91.6017 84.9467C91.9041 84.7976 92.1687 84.6609 92.3955 84.5366C92.6223 84.3875 92.8491 84.3129 93.0759 84.3129C93.3531 84.3129 93.5799 84.3875 93.7563 84.5366C93.9327 84.6609 94.1217 84.8597 94.3233 85.1332L97.1204 89.6072C95.7596 90.7257 94.1973 91.5708 92.4333 92.1425C90.6694 92.7142 88.8424 93 86.9525 93Z" fill="white"/>
<path d="M111.387 37V68.7284H113.126C113.756 68.7284 114.247 68.6414 114.6 68.4674C114.953 68.2934 115.331 67.9703 115.734 67.498L125.373 55.7537C125.801 55.2565 126.255 54.8713 126.733 54.5979C127.212 54.2996 127.842 54.1505 128.623 54.1505H137.166L125.108 68.3555C124.68 68.8775 124.239 69.3622 123.785 69.8096C123.331 70.2321 122.84 70.605 122.311 70.9281C122.84 71.3009 123.306 71.7359 123.709 72.233C124.113 72.7301 124.516 73.2645 124.919 73.8362L137.846 92.4035H129.417C128.686 92.4035 128.069 92.2792 127.565 92.0306C127.061 91.7821 126.607 91.3595 126.204 90.763L116.339 76.2597C115.961 75.688 115.583 75.3151 115.205 75.1411C114.827 74.9672 114.26 74.8802 113.504 74.8802H111.387V92.4035H102.051V37H111.387Z" fill="white"/>
<circle cx="152.923" cy="86.5384" r="6.46154" fill="white"/>
</svg>
