<svg width="160" height="327" viewBox="0 0 160 327" fill="none" xmlns="http://www.w3.org/2000/svg">
<g style="mix-blend-mode:darken" opacity="0.25" filter="url(#filter0_f)">
<ellipse cx="80" cy="298.5" rx="65" ry="13.5" fill="#444444"/>
</g>
<path d="M54.2476 227.15C53.751 222.255 53.1835 217.361 52.687 212.395C52.1904 207.855 51.623 203.315 51.0555 198.705C50.488 194.094 49.9914 189.483 49.4239 184.872C48.8564 180.19 48.3599 175.509 47.8633 170.827C47.154 164.939 46.4446 159.051 45.8062 153.164C45.6643 151.958 45.3096 151.958 44.3875 152.454C43.1816 153.093 41.9047 153.447 40.5569 153.802C39.7057 154.015 39.351 153.731 39.351 152.88C39.351 152.738 39.351 152.525 39.351 152.383C38.9963 136.494 38.7835 120.604 39.1382 104.714C39.2801 97.9045 39.0673 91.0237 40.4151 84.2848C41.3372 79.8158 42.8269 75.5596 44.8131 71.4454C47.0121 66.8345 49.8496 62.7202 52.9707 58.6769C52.6161 58.0385 51.8358 58.6059 51.4811 58.1094C51.8358 57.6128 52.4032 57.5419 52.8998 57.5419C56.6594 57.4 60.419 57.8256 64.1786 58.1094C64.8171 58.3931 64.7461 58.8897 64.6042 59.3862C62.9018 62.5074 60.5609 65.3449 59.0003 68.537C58.22 70.1685 57.2978 71.7291 56.5885 73.4316C53.0417 78.6099 49.9914 84.072 47.154 89.6759C43.5362 96.9114 41.4082 104.572 41.0535 112.588C40.7697 117.979 41.6919 123.3 43.2525 128.478C44.6712 133.373 46.7284 137.983 49.5658 142.24C50.417 143.516 51.4101 144.084 52.8998 144.013C55.8791 143.942 58.7875 144.013 61.7668 144.013C63.9658 144.013 64.0368 143.942 64.0368 141.459C64.0368 122.377 64.0368 103.296 64.0368 84.2138C64.0368 81.1636 63.8949 78.0424 64.5333 75.0631C65.952 70.0976 68.7895 65.9124 71.556 61.6562C72.2653 60.5921 73.0456 59.5281 73.755 58.4641C74.7481 57.1163 75.8121 55.7685 76.8762 54.4207C77.4437 53.7114 78.0112 53.0729 79.0043 52.9311C86.1688 52.7183 93.4043 52.7892 100.569 52.8601C102.91 52.8601 103.832 54.5626 103.619 57.6838C103.123 58.6769 103.548 59.7409 103.761 60.5921C104.328 62.2946 104.257 63.9261 104.257 65.6286C104.257 88.3991 104.257 111.17 104.257 133.94C104.257 134.649 104.47 135.359 103.974 135.997C103.406 135.217 103.619 134.295 103.619 133.443C103.619 110.815 103.619 88.1863 103.619 65.5577C103.619 64.9902 103.69 64.4227 103.619 64.068C103.619 76.1981 103.619 88.5409 103.619 100.884C103.619 111.666 103.619 122.519 103.619 133.302C103.619 134.082 103.69 134.862 103.548 135.572C103.264 136.281 102.697 136.281 102.058 136.281C98.0151 136.565 93.9008 136.423 89.8575 136.281C88.5806 136.21 88.0131 135.713 88.0131 134.437C88.0131 133.302 88.0131 132.167 88.0131 131.103C88.0131 117.199 88.0131 103.225 88.0131 89.3213C88.0131 103.934 88.0131 118.476 88.0131 133.089C88.0131 136.565 87.9422 136.352 91.1343 136.352C91.3471 136.352 91.489 136.423 91.6309 136.423C92.4112 137.061 91.7018 137.487 91.3471 137.842C89.0062 140.324 88.3678 143.375 88.155 146.638C88.0841 148.411 88.0841 150.184 88.155 151.958C88.2259 153.235 88.7934 154.228 90.1412 154.228C92.8368 154.228 95.5324 154.795 98.2279 154.653C99.7176 154.582 100.498 154.086 100.64 152.525C100.994 147.773 101.349 143.02 100.356 138.267C100.143 136.919 100.711 136.281 102.129 136.352C102.555 136.352 103.052 136.423 103.477 136.068C103.619 135.926 103.832 135.926 103.974 136.068C103.903 142.949 103.832 149.759 104.045 156.64C104.116 156.923 104.257 157.278 104.116 157.633C103.619 158.839 102.697 159.335 101.42 159.335C96.8801 159.335 92.3402 159.477 87.8003 159.264C87.2328 159.122 86.6654 159.051 86.0979 159.193C84.2535 159.335 82.3383 159.335 80.423 159.264C78.5786 159.193 77.089 159.69 75.7412 160.896C74.2515 162.102 72.62 163.166 71.1304 164.443C70.7047 164.797 70.2791 165.081 69.7116 165.081C68.5057 164.655 67.8673 163.662 67.087 162.811C66.023 161.463 64.8171 160.257 63.4693 159.193C62.7599 158.555 61.8377 158.058 60.9156 158.555C59.9225 159.122 60.0643 160.115 60.2062 161.109C60.7028 164.372 61.7668 167.351 63.6111 170.117C64.6042 171.607 65.5264 173.097 66.3067 174.657C66.3777 175.225 66.1648 175.721 65.8811 176.147C64.6042 178.133 64.8171 180.119 65.952 182.106C66.3067 182.744 67.0161 183.382 65.952 184.021C62.7599 184.517 59.5678 184.234 56.4466 184.163C56.021 184.163 55.6663 183.95 55.3116 183.666L55.1697 183.595H55.0279C54.6732 184.163 54.8151 184.872 54.8151 185.511C54.8151 198.776 54.8151 212.112 54.7441 225.377C54.7441 225.944 55.3116 226.795 54.2476 227.15Z" fill="url(#paint0_linear)"/>
<path d="M55.3117 183.595C59.0004 183.524 62.689 183.524 66.3777 183.453C66.6615 183.241 66.9452 183.099 67.2999 183.099C70.9886 183.028 74.6772 183.028 78.3659 183.028C81.558 183.028 84.7502 183.028 87.9423 183.028C96.5255 183.028 105.038 183.028 113.621 183.028C113.976 183.028 114.33 183.028 114.685 183.028C119.012 182.886 123.268 183.028 127.596 182.957C128.234 182.957 128.872 183.028 129.44 183.382C131.639 183.382 133.838 183.524 135.966 183.453C137.314 183.382 137.668 183.808 137.668 185.156C137.598 194.094 137.668 202.961 137.668 211.899C137.668 219.276 137.456 226.653 137.739 234.031C137.952 239.209 133.058 245.026 126.744 244.955C106.74 244.742 86.7364 244.813 66.7324 244.813C66.023 244.813 65.3137 244.884 64.6043 244.884C64.5334 244.955 64.5334 244.955 64.4625 244.955C61.5541 245.522 57.0142 242.33 56.4467 239.422C54.957 236.443 55.1698 233.321 55.2408 230.129C55.4536 222.681 55.3117 215.304 55.3117 207.855C55.2408 199.84 55.2408 191.753 55.3117 183.595Z" fill="url(#paint1_linear)"/>
<path d="M103.548 57.7547C103.052 57.1163 102.981 56.336 102.91 55.6266C102.768 53.9241 101.846 53.4985 100.285 53.4985C92.9787 53.5695 85.6723 53.4985 78.3659 53.4985C77.9403 53.0729 77.8693 52.5764 77.8693 52.0089C77.9403 48.8168 77.8693 45.6246 78.0821 42.4325C78.2949 37.7507 78.4368 32.998 78.5787 28.3162C78.6496 27.1103 78.0821 26.4719 76.8762 26.2591C74.9609 25.9753 73.0457 25.6916 71.0595 25.5497C68.0802 25.4079 66.3777 23.9182 65.8102 21.0098C65.7393 20.5133 65.6683 20.0877 65.5265 19.5911C65.3136 18.8108 65.6683 17.6049 64.4624 17.463C63.1856 17.2502 61.9087 17.1793 60.9865 18.5271C60.0644 19.8039 59.4969 21.1517 58.8585 22.5704C55.3826 30.8699 56.8723 38.4601 61.8378 45.6956C62.689 46.9015 63.824 47.1852 65.2427 47.1852C67.5836 47.1852 67.7964 47.5399 67.9383 49.8808C68.222 53.2857 67.087 56.1232 64.5334 58.3222C60.2063 58.3931 55.8791 57.7547 51.4811 57.9675C45.9481 57.7547 40.4151 57.6838 34.8821 57.2581C32.1865 57.0453 31.3353 56.0522 31.7609 53.3567C31.9028 52.6473 31.9737 51.9379 31.9737 51.2286C31.9737 49.7389 32.6121 48.6749 33.818 47.8236C34.4565 47.3271 35.1658 46.8305 35.7333 46.2631C36.8683 45.27 37.152 44.064 36.6555 42.5744C36.0171 40.8719 35.0949 39.2404 34.6693 37.467C33.9599 34.3458 34.7402 33.1399 37.7905 32.7143C41.0535 32.2887 41.4082 31.6502 40.2023 28.529C39.6348 27.1103 38.8545 25.7625 38.3579 24.3438C37.5067 22.2157 37.9323 21.3645 40.0604 20.5842C40.6988 20.3714 41.2663 20.1586 41.9047 19.9458C44.0328 19.1655 44.4584 18.5271 44.3166 16.2571C44.2456 14.8384 44.1747 13.4197 43.891 12.0719C43.6072 10.795 44.1747 10.2985 45.2387 10.0147C46.2318 9.731 47.154 9.44725 48.1471 9.23444C49.6368 8.87976 50.3461 7.9576 50.488 6.46794C50.5589 5.90045 50.7008 5.33296 50.7718 4.69454C50.9846 3.6305 50.2752 2.0699 51.1974 1.50242C52.5452 0.651183 54.1767 0.0836954 55.8082 0.0127593C60.49 -0.129113 65.1008 0.934926 69.5698 2.0699C72.691 2.8502 75.5284 1.99897 78.5077 1.71522C80.7777 1.43148 83.0477 0.863991 85.2467 0.225567C87.091 -0.341921 88.8644 0.296503 90.5669 0.934927C92.4112 1.64429 94.1137 2.42459 96.0999 2.63739C97.9442 2.77927 98.5117 4.33986 98.8664 5.90045C99.1501 7.03543 99.4339 8.24134 99.292 9.37632C98.9373 12.9231 100.994 14.9803 103.903 16.1152C106.527 17.1083 107.166 18.9527 107.166 21.3645C107.166 23.3507 106.882 25.3369 106.527 27.3231C106.244 28.6 106.598 29.5222 107.946 29.8768C108.868 30.1606 109.72 30.5153 110.642 30.799C112.202 31.2246 112.699 32.2887 112.415 33.7783C111.99 35.9064 111.138 37.8217 110.429 39.8079C109.578 42.2197 110.003 42.8581 112.557 42.9291C113.054 42.9291 113.55 42.8581 113.621 43.4966C114.189 47.1143 115.749 50.6611 115.04 54.4207C114.827 55.5557 114.26 56.1941 113.125 56.4069C109.861 57.2581 106.669 57.4 103.548 57.7547Z" fill="#351621"/>
<path d="M110.997 274.677C109.72 274.677 108.656 274.677 108.017 273.116C104.541 264.391 100.995 255.666 97.3769 246.941C96.7385 245.522 96.9513 245.168 98.5119 245.168C104.683 245.239 110.926 245.239 117.097 245.168C118.729 245.168 119.225 245.806 119.438 247.225C120.573 254.389 121.85 261.483 122.985 268.576C123.339 270.563 123.978 272.549 123.694 274.677C123.198 275.174 122.559 275.245 121.921 275.245C118.87 275.245 115.82 275.245 112.77 275.245C112.132 275.245 111.564 275.103 110.997 274.677Z" fill="#213577"/>
<path d="M56.3757 239.564C58.2201 242.614 60.9156 244.6 64.5334 245.026C65.3137 245.593 66.2358 245.309 67.0871 245.309C69.9245 245.38 72.762 245.309 75.5994 245.309C76.5216 245.309 76.9472 245.522 76.8053 246.657C76.3088 251.623 75.9541 256.588 75.5285 261.554C75.1738 265.455 74.8191 269.357 74.5354 273.329C74.4644 274.11 74.3226 274.748 73.4004 274.748C73.1166 275.032 72.691 275.245 72.3363 275.245C69.2152 275.386 66.023 275.386 62.9018 275.245C62.0506 275.245 61.4831 274.819 61.1284 274.039C60.8447 270.988 59.7097 268.151 59.2132 265.101C58.3619 259.922 57.8654 254.744 57.227 249.566C56.9432 247.296 56.6595 245.026 56.3757 242.756C56.0211 241.692 55.6664 240.557 56.3757 239.564Z" fill="#273A86"/>
<path d="M124.687 276.308C126.035 275.741 126.602 276.167 126.957 277.656C128.588 284.111 130.433 290.496 132.135 296.951C132.348 297.66 132.987 298.653 131.426 299.008C130.504 299.221 130.22 299.079 129.936 298.157C129.014 294.539 128.021 290.992 126.957 287.091C125.467 288.864 124.829 290.85 123.907 292.624C122.417 295.39 120.998 298.157 119.651 300.994C119.154 301.987 118.516 302.484 117.452 302.839C111.422 304.825 105.321 306.74 99.2919 308.868C97.5894 309.436 97.0219 308.655 96.2416 307.52C95.3904 306.314 95.887 305.676 96.7382 304.825C99.15 302.484 101.491 300.072 103.832 297.589C104.683 296.738 105.534 296.171 106.74 296.312C107.237 295.887 107.804 295.958 108.443 295.887C110.996 295.532 113.124 294.539 114.756 292.411C116.6 289.928 118.232 287.374 119.863 284.75C120.927 283.047 121.069 281.203 121.211 279.288C121.353 276.592 122.062 275.954 124.687 276.308Z" fill="#0C0D3C"/>
<path d="M73.3295 280.352C75.2447 280.068 75.5994 280.99 75.5994 282.764C75.5285 289.29 75.5285 295.887 75.5285 302.413C75.5285 303.193 75.8122 304.115 74.3935 304.115C73.0457 304.115 73.2585 303.193 73.2585 302.413C73.2585 298.866 73.2585 295.248 73.2585 291.276C72.0526 292.482 71.0595 293.404 70.2083 294.397C67.5127 297.306 64.8881 300.214 62.1925 303.122C61.6959 303.69 61.1285 304.115 60.2772 304.186C53.7511 304.47 47.225 304.754 40.6989 305.25C38.7127 305.392 38.6417 304.115 38.1452 302.839C37.5777 301.491 38.6417 301.207 39.422 300.781C42.3304 299.079 45.2388 297.376 48.0762 295.603C49.0693 295.036 49.9915 294.681 51.0555 295.177C52.4743 294.752 53.822 295.177 55.2408 295.177C56.9432 295.177 58.4329 294.681 59.7807 293.617C62.0506 291.773 64.1787 289.857 66.3068 287.942C67.6546 286.807 68.5058 285.317 69.0733 283.686C69.357 282.906 69.6408 282.125 69.9955 281.416C70.9176 279.855 71.5561 279.642 73.3295 280.352Z" fill="#0C0D3C"/>
<path d="M129.369 183.453C124.403 183.595 119.438 183.595 114.472 183.453C113.763 180.758 113.195 178.062 113.976 175.296C115.536 174.728 117.239 174.515 118.941 174.302C120.502 174.09 121.211 172.884 121.779 171.678C122.417 170.401 122.843 169.053 123.339 167.776C123.907 166.429 124.9 165.648 126.39 165.861C129.085 166.216 131.284 167.493 132.561 170.046C133.483 171.82 133.128 173.167 131.497 174.373C130.929 174.799 130.149 175.225 130.433 176.005C131.426 178.7 130.362 181.041 129.369 183.453Z" fill="#5ABE4F"/>
<path d="M73.3294 280.352C71.7688 280.21 70.4919 280.494 70.1372 282.267C69.1441 286.878 65.5264 289.361 62.2633 292.127C62.0505 292.269 61.8377 292.411 61.6958 292.553C58.7165 295.887 55.0279 296.171 50.9845 295.107C54.3894 291.489 57.5815 287.729 60.4899 283.757C61.1283 282.835 61.3412 281.983 61.1284 280.777C60.6318 278.507 60.9155 276.167 60.9865 273.897C61.6249 274.535 62.4052 274.606 63.2564 274.606C66.5904 274.606 69.9244 274.606 73.3294 274.606C73.3294 276.592 73.3294 278.507 73.3294 280.352Z" fill="#672B33"/>
<path d="M124.687 276.309C121.779 276.947 121.708 276.947 121.637 280.139C121.566 283.757 119.367 286.311 117.664 289.148C117.026 290.212 116.175 291.134 115.465 292.127C113.408 295.319 110.429 296.525 106.74 296.312C108.726 292.198 110.784 288.155 112.486 283.899C113.124 282.267 113.337 280.919 112.344 279.217C111.564 277.869 111.422 276.238 110.996 274.677C115.253 274.677 119.509 274.677 123.694 274.677C123.765 275.386 123.907 276.025 124.687 276.309Z" fill="#672B33"/>
<path d="M118.941 174.373C117.523 175.579 115.749 175.225 114.118 175.508C113.834 175.65 113.55 175.65 113.337 175.508C113.054 175.154 112.983 174.657 112.983 174.231C112.557 172.387 112.486 170.472 111.422 168.769C111.28 168.628 111.209 168.486 111.138 168.344C111.067 167.918 110.926 167.422 110.784 166.996C110.145 165.01 110.287 164.939 112.344 165.223C114.543 165.648 115.395 166.57 115.182 168.698C115.04 170.117 115.182 171.11 116.742 171.749C117.877 172.032 118.516 173.167 118.941 174.373Z" fill="#20481D"/>
<path d="M54.2476 227.15C54.815 226.582 54.6022 225.802 54.6022 225.093C54.6022 211.899 54.6022 198.775 54.6022 185.581C54.6022 184.943 54.3185 184.163 54.9569 183.595C54.9569 199.201 54.9569 214.807 54.9569 230.342C54.5313 229.278 54.1057 228.285 54.2476 227.15Z" fill="#63679A"/>
<path d="M103.903 157.278C103.903 157.065 103.974 156.781 103.974 156.568C106.385 158.2 108.088 160.47 109.507 162.953C109.294 163.165 109.436 163.662 109.01 163.733C108.443 163.591 108.159 163.094 107.946 162.669C106.953 160.895 105.605 159.335 104.186 157.916C103.974 157.774 103.903 157.561 103.903 157.278Z" fill="#89758B"/>
<path d="M112.344 165.081C110.996 164.939 110.5 165.364 111.209 166.641C111.493 167.138 111.706 167.705 111.28 168.273C109.79 167.776 109.861 166.428 109.649 165.223C109.719 164.939 109.932 164.726 110.216 164.655C110.996 164.868 111.777 164.513 112.344 165.081Z" fill="#565F37"/>
<path d="M110.287 164.726C110.145 164.868 110.074 165.01 109.932 165.081C109.72 165.081 109.507 164.939 109.365 164.726C109.223 164.371 108.939 164.087 109.223 163.662C109.223 163.378 109.294 163.094 109.578 162.953C109.791 163.591 110.003 164.158 110.287 164.726Z" fill="#8B7575"/>
<path d="M64.9587 74.7082C64.0366 88.5408 64.675 102.373 64.5331 116.135C64.4622 125.002 64.5331 133.869 64.6041 142.736C64.6041 144.226 64.1784 144.651 62.6888 144.58C59.071 144.509 55.4533 144.509 51.9065 144.58C50.9134 144.58 50.275 144.296 49.7075 143.445C44.3873 135.642 41.4789 127.059 40.6986 117.695C39.8474 107.906 42.1883 98.7556 46.3735 89.9595C49.2819 84.0009 52.4031 78.1841 56.3755 72.8639C56.8011 72.3673 57.2976 72.0836 57.8651 72.5092C58.5036 72.9348 58.5036 73.5733 58.4326 74.2826C58.1489 76.5526 57.7942 78.8225 56.943 81.3053C59.2129 79.1063 61.1991 77.0491 63.2563 75.0629C63.6819 74.7792 64.1075 73.7151 64.9587 74.7082Z" fill="#8296DE"/>
<path d="M64.4622 58.3929C64.8878 57.6126 65.2425 56.7614 65.81 56.123C67.6543 53.9239 67.3706 51.2993 67.2997 48.7456C67.2997 47.8234 66.6612 47.6106 66.0228 47.7525C63.0435 48.32 61.4829 46.6175 60.2061 44.3476C55.0987 35.4806 55.0987 26.5426 60.8445 17.8884C61.412 17.0372 64.9588 16.4697 65.6681 17.0372C66.0228 17.321 65.9519 17.6756 65.9519 18.0303C66.0937 19.0944 66.1647 20.1584 66.3066 21.1515C66.6612 23.3505 68.4346 24.982 70.7046 24.982C72.9745 24.982 75.1736 25.4077 77.3726 25.6914C78.5785 25.8333 79.146 26.3298 79.146 27.7486C78.8622 36.2609 78.2947 44.8441 78.3657 53.3565C76.947 55.1299 75.5282 56.9033 74.1095 58.6767C72.3361 59.457 70.3499 59.5988 68.5056 59.5279C67.0868 59.457 65.6681 60.3082 64.2494 59.386C64.2494 59.1023 64.3913 58.7476 64.4622 58.3929Z" fill="url(#paint2_linear)"/>
<path d="M103.903 157.278C104.045 157.42 104.116 157.561 104.257 157.703C105.18 158.909 105.109 160.399 105.322 161.747C105.605 163.165 105.889 164.655 106.173 166.074C105.747 167.351 104.967 168.486 104.683 169.833C103.264 170.401 102.484 171.536 101.988 172.884C101.704 173.735 101.491 174.586 101.278 175.437C101.065 176.147 101.065 177.14 100.143 177.282C99.221 177.494 99.1501 176.43 98.7245 175.934C97.7314 174.728 96.4545 174.515 95.0358 174.799C93.0496 175.225 91.1343 175.721 89.3609 176.643C88.5806 177.069 87.8003 177.494 86.8782 177.565C85.7432 177.494 85.1048 176.714 84.3245 176.005C83.8279 175.437 83.0476 175.437 82.4092 175.295C80.2102 174.799 79.9264 174.444 80.2811 172.174C80.352 171.891 80.352 171.607 80.352 171.323C81.2742 166.854 83.1185 162.882 86.0979 159.477C86.4525 159.193 86.7363 158.909 87.2328 158.838C91.7727 158.838 96.3127 158.767 100.782 158.838C102.129 158.767 103.193 158.484 103.903 157.278Z" fill="#213577"/>
<path d="M100.711 138.196C101.278 139.331 101.491 140.537 101.42 141.814C101.278 145.644 101.562 149.475 101.065 153.305C100.924 154.724 100.214 155.15 99.0793 155.221C95.8872 155.504 92.766 154.795 89.5738 154.795C88.3679 154.795 87.5876 153.873 87.6586 152.667C87.7295 149.404 87.3039 146.07 88.2261 142.807C88.8645 140.395 89.9285 138.338 91.9147 136.777C91.9147 135.997 92.5532 136.281 92.9788 136.281C94.7522 136.281 96.5256 136.281 98.299 136.281C100.356 136.21 100.356 136.21 100.711 138.196Z" fill="url(#paint3_linear)"/>
<path d="M64.1786 59.4569C67.4416 59.2441 70.7756 58.9604 74.0387 58.7476C71.6269 62.3653 69.1441 65.9121 67.0869 69.7426C66.2357 71.3742 65.7392 73.0766 64.9589 74.7082C64.1076 74.2826 63.9658 75.1338 63.6111 75.4175C61.2702 77.6875 59.0002 80.0284 56.5175 82.2274C57.1559 79.7446 57.7234 77.2619 58.0781 74.7082C58.3618 72.9348 58.0071 72.5091 56.3756 72.8638C58.2199 68.1111 60.9155 63.9259 63.8239 59.8116C63.9658 59.8116 64.0367 59.5988 64.1786 59.4569Z" fill="#0050DC"/>
<path d="M65.9521 174.373C63.1856 170.259 60.4191 166.145 59.7807 161.037C59.6388 159.832 59.3551 158.555 60.561 157.774C61.8379 156.994 62.9019 157.845 63.895 158.626C66.0231 160.399 67.6546 162.669 69.5699 164.655C71.8398 166.57 73.4714 169.124 75.3157 171.465C76.5216 173.026 78.0113 174.373 78.5788 176.36C78.5788 176.572 78.5078 176.714 78.4369 176.856C78.3659 177.069 78.2241 177.282 78.0822 177.424C77.5857 177.92 77.4438 178.842 76.6635 178.842C75.6704 178.771 75.8123 177.707 75.4576 177.14C73.7551 173.522 71.3433 172.6 67.5837 174.09C67.0871 174.373 66.5906 174.799 65.9521 174.373Z" fill="#F0963F"/>
<path d="M78.3659 176.36C75.9541 172.884 73.3294 169.55 70.6339 166.287C70.2083 165.79 69.9245 165.223 69.4989 164.726C71.4142 163.307 73.4004 161.96 75.2447 160.47C76.5925 159.335 78.0112 158.555 79.8556 158.696C81.9127 158.838 83.9698 158.696 86.027 158.696C86.1689 158.838 86.1689 158.98 86.1689 159.193C83.828 162.101 82.0546 165.294 80.9196 168.84C80.7068 169.55 80.2102 170.33 80.7068 171.181C80.6359 171.678 80.5649 172.245 80.494 172.742C80.2812 173.877 80.494 174.586 81.9127 174.799C82.8349 174.941 84.1117 174.515 84.6083 175.792C83.1186 176.289 81.629 175.721 80.1393 176.076C79.9265 176.076 79.7846 176.005 79.6427 175.934C78.7206 174.941 79.7137 173.948 79.6427 173.096C79.359 174.019 79.2881 175.083 79.1462 176.076C79.0753 176.36 78.7915 176.572 78.3659 176.36Z" fill="#213576"/>
<path d="M65.952 174.373C66.5195 174.09 67.1579 173.877 67.7254 173.593C71.2722 171.961 74.6062 173.38 75.883 177.14C76.2377 178.559 76.4505 180.048 75.954 181.467C75.5993 182.886 74.6062 183.382 73.1875 183.311C71.1303 183.311 69.0732 183.098 67.016 183.453C66.8032 183.453 66.5904 183.453 66.3067 183.382C64.3914 180.828 63.4692 178.204 65.5973 175.295C65.8101 175.083 65.8811 174.728 65.952 174.373Z" fill="#D84942"/>
<path d="M103.903 136.068C103.761 136.068 103.69 136.068 103.548 136.068C103.335 136.068 103.264 135.855 103.193 135.713C103.193 111.24 103.193 86.7675 103.193 62.2946C103.406 62.2946 103.69 62.2946 103.903 62.2946C103.903 86.8384 103.903 111.453 103.903 136.068Z" fill="#22307B"/>
<path d="M103.194 135.713C103.335 135.855 103.406 135.926 103.548 136.068C103.406 137.061 102.626 136.777 102.059 136.777C100.924 136.706 100.64 137.203 100.711 138.196C100.498 136.423 99.2921 136.281 97.8734 136.423C95.8872 136.635 93.83 135.997 91.8438 136.777C87.5877 136.777 87.5877 136.777 87.5877 132.592C87.5877 118.05 87.5877 103.508 87.5877 88.9665C87.5877 88.3281 87.3749 87.6187 87.9424 86.7675C88.5098 87.5478 88.297 88.2571 88.297 88.8955C88.297 103.863 88.368 118.76 88.297 133.727C88.297 135.501 88.7226 136.139 90.567 136.068C94.1847 135.926 97.8025 136.068 101.349 135.997C101.917 135.997 102.626 136.281 103.194 135.713Z" fill="#1E2972"/>
<path d="M86.0978 159.051C86.0978 158.909 86.0978 158.839 86.0978 158.697C86.4525 158.626 86.8071 158.129 87.1618 158.697C86.949 158.909 86.6653 159.193 86.4525 159.406C86.3106 159.406 86.1687 159.264 86.0978 159.051Z" fill="#454971"/>
<path d="M113.763 183.453C105.109 183.453 96.4544 183.453 87.8712 183.524C87.8002 183.24 87.8712 183.098 88.1549 182.956C88.8643 182.602 89.6446 182.673 90.4249 182.673C96.3835 182.673 102.413 182.673 108.372 182.673C109.649 182.886 109.719 181.892 109.79 181.112C109.861 179.835 110.5 178.913 111.351 178.062C112.202 177.14 112.77 177.282 113.266 178.487C113.621 179.268 113.621 180.048 113.621 180.899C113.621 181.609 113.55 182.318 113.905 182.956C113.905 183.098 113.905 183.311 113.763 183.453Z" fill="#5ABE4F"/>
<path d="M87.9422 183.24C87.9422 183.311 87.8713 183.453 87.8713 183.524C84.6792 183.524 81.4871 183.524 78.2949 183.524C78.1531 183.382 78.0821 183.169 78.0112 183.028C77.5856 180.899 78.1531 178.842 78.3659 176.785C78.3659 176.643 78.4368 176.501 78.4368 176.36C78.6496 176.289 78.8624 176.147 79.0752 176.076C79.2881 175.934 79.4299 175.508 79.8555 175.721C79.9974 175.721 80.0683 175.792 80.1393 175.792C80.1393 177.353 79.8555 178.913 79.6427 180.474C79.4299 182.389 79.7137 182.673 81.558 182.673C82.7639 182.673 84.0408 182.602 85.2467 182.673C86.6654 182.744 87.3748 182.247 87.2329 180.758C87.162 180.261 87.162 179.694 87.5876 179.268C89.0063 180.19 89.1482 181.467 87.9422 183.24Z" fill="#B4614D"/>
<path d="M78.2948 183.24C78.2948 183.382 78.2948 183.453 78.2948 183.595C74.5352 183.595 70.7756 183.595 67.016 183.595C68.9313 183.028 70.9175 183.382 72.9037 183.311C74.2515 183.311 75.1736 182.886 75.4574 181.467C75.8121 180.9 76.2377 180.971 76.4505 181.467C76.8761 182.389 77.5855 182.744 78.2948 183.24Z" fill="#EC9044"/>
<path d="M113.763 183.453C113.763 183.382 113.763 183.24 113.763 183.17C113.266 181.893 113.266 180.616 113.266 179.339C113.195 178.63 113.55 177.849 113.124 177.14C112.983 176.856 112.841 176.573 112.77 176.218C112.77 176.076 112.841 175.863 112.841 175.721C112.983 175.508 113.124 175.367 113.408 175.296C113.621 175.296 113.834 175.367 114.047 175.367C113.763 178.062 114.685 180.687 114.401 183.382C114.259 183.453 114.047 183.453 113.763 183.453Z" fill="#6BA050"/>
<path d="M104.541 169.692C104.257 168.202 104.967 167.209 105.96 166.287C106.74 164.868 108.017 164.584 109.507 164.797C109.649 164.939 109.72 165.01 109.861 165.152C110.216 166.287 110.5 167.422 111.28 168.344C111.351 168.344 111.493 168.344 111.564 168.344C112.202 170.401 112.628 172.6 113.124 174.728C113.195 175.012 113.195 175.225 113.054 175.508C112.557 175.863 112.131 175.65 111.777 175.366C109.578 173.522 107.237 171.891 104.825 170.401C104.754 170.117 104.612 169.904 104.541 169.692Z" fill="#1F471D"/>
<path d="M113.054 174.728C112.273 172.671 111.564 170.543 111.635 168.344C112.983 169.975 112.841 172.103 113.408 174.019C113.196 174.161 113.337 174.586 113.054 174.728Z" fill="#535D35"/>
<path d="M113.054 174.728C113.125 174.444 113.125 174.161 113.408 174.019C113.408 174.444 113.408 174.941 113.479 175.367C113.337 175.508 113.195 175.65 113.125 175.792C113.054 175.721 112.983 175.65 112.983 175.579C112.983 175.508 113.054 175.437 113.054 175.437C113.054 175.154 113.054 174.941 113.054 174.728Z" fill="#7B7049"/>
<path d="M109.507 164.797C108.301 165.293 107.024 165.506 105.96 166.287C104.896 164.442 105.038 162.314 104.612 160.328C104.399 159.477 104.399 158.555 104.257 157.703C106.456 159.193 107.591 161.676 109.223 163.733C109.294 164.088 109.436 164.442 109.507 164.797Z" fill="#7A71AF"/>
<path d="M113.054 175.366C113.054 175.508 113.054 175.65 113.124 175.721C113.124 175.863 113.124 175.934 113.124 176.076C111.351 177.707 109.861 179.623 109.507 182.105C109.436 182.531 109.223 182.886 108.868 183.169C101.917 183.169 94.9648 183.169 88.0131 183.169C88.2259 181.822 88.7225 180.474 87.6584 179.197C86.9491 178.7 86.5944 178.133 86.8072 177.282C89.3609 176.147 91.7727 174.87 94.5392 174.302C97.3057 173.735 98.7244 174.373 99.8594 176.998C100.64 176.856 100.569 176.147 100.711 175.65C101.136 174.09 101.491 172.6 102.271 171.181C102.768 170.188 103.477 169.55 104.612 169.692C107.308 171.039 109.79 172.813 112.06 174.87C112.273 175.154 112.628 175.437 113.054 175.366Z" fill="#479541"/>
<path d="M86.8073 177.282C87.091 177.92 87.3748 178.559 87.6585 179.197C87.7295 183.17 87.7295 183.17 83.6152 183.17C82.8349 183.17 82.0546 183.099 81.3452 183.17C79.5718 183.453 78.7206 182.744 79.1462 180.971C79.5718 179.268 79.0043 177.282 80.1393 175.721C81.6999 174.941 83.1896 175.296 84.7501 175.721C85.3886 176.289 86.0979 176.785 86.8073 177.282Z" fill="#D84942"/>
<path d="M86.0979 159.051C86.2398 159.193 86.3817 159.335 86.4526 159.406C83.6861 162.882 81.6999 166.712 80.7777 171.11C79.8555 170.685 80.1393 170.046 80.3521 169.337C81.6999 165.648 83.3314 162.031 86.0979 159.051Z" fill="#5A5467"/>
<path d="M78.2948 183.24C77.2308 183.453 76.4505 183.169 76.3086 181.963C76.2377 181.467 76.0249 181.183 75.5283 181.467C75.883 180.048 75.9539 178.629 75.883 177.211C76.4505 177.565 76.0249 178.346 76.7342 178.771C77.3017 178.204 77.5145 177.211 78.3658 176.785C79.0042 177.424 78.8623 178.204 78.6495 178.913C78.1529 180.332 78.4367 181.822 78.2948 183.24Z" fill="#D94F41"/>
<path d="M79.7846 175.721C79.5008 175.863 79.288 176.005 79.0043 176.076C79.0043 174.515 79.359 173.026 80.0683 171.607C80.3521 173.026 79.5718 174.373 79.7846 175.721Z" fill="#766460"/>
<path d="M108.797 183.169C109.294 180.828 110.003 178.488 111.848 176.785C112.202 176.43 112.486 176.076 113.054 176.147C113.054 176.43 113.125 176.714 113.408 176.856C113.692 177.565 113.692 178.275 113.408 178.984C113.479 180.403 113.621 181.822 113.692 183.24C112.841 183.098 113.054 182.389 113.054 181.822C113.054 181.396 113.054 180.97 113.054 180.616C113.054 179.552 113.125 178.488 112.131 177.778C111.422 178.771 110.358 179.339 110.145 180.687C110.074 181.609 110.571 183.098 108.797 183.169Z" fill="#59BE4E"/>
<path d="M113.479 178.913C113.479 178.204 113.479 177.495 113.479 176.785C113.976 177.495 113.976 178.204 113.479 178.913Z" fill="#829153"/>
<defs>
<filter id="filter0_f" x="0" y="270" width="160" height="57" filterUnits="userSpaceOnUse" color-interpolation-filters="sRGB">
<feFlood flood-opacity="0" result="BackgroundImageFix"/>
<feBlend mode="normal" in="SourceGraphic" in2="BackgroundImageFix" result="shape"/>
<feGaussianBlur stdDeviation="7.5" result="effect1_foregroundBlur"/>
</filter>
<linearGradient id="paint0_linear" x1="45.6643" y1="62.2945" x2="79.0042" y2="113.014" gradientUnits="userSpaceOnUse">
<stop stop-color="#1973EF"/>
<stop offset="1" stop-color="#0D26C8"/>
</linearGradient>
<linearGradient id="paint1_linear" x1="55.1882" y1="213.989" x2="137.746" y2="213.989" gradientUnits="userSpaceOnUse">
<stop stop-color="#FBED96"/>
<stop offset="1" stop-color="#ABECD6"/>
</linearGradient>
<linearGradient id="paint2_linear" x1="56.7315" y1="33.2732" x2="93.8936" y2="35.4337" gradientUnits="userSpaceOnUse">
<stop stop-color="#672B33"/>
<stop offset="1" stop-color="#380A10"/>
</linearGradient>
<linearGradient id="paint3_linear" x1="89.5726" y1="137.846" x2="94.527" y2="155.288" gradientUnits="userSpaceOnUse">
<stop stop-color="#07D38E"/>
<stop offset="1" stop-color="#06AEC1"/>
</linearGradient>
</defs>
</svg>
