<svg width="190" height="327" viewBox="0 0 190 327" fill="none" xmlns="http://www.w3.org/2000/svg">
<g style="mix-blend-mode:darken" opacity="0.25" filter="url(#filter0_f)">
<ellipse cx="94.9419" cy="298.526" rx="79.9419" ry="13.3957" fill="#444444"/>
</g>
<path d="M84.2476 227.15C83.751 222.255 83.1835 217.361 82.687 212.395C82.1904 207.855 81.623 203.315 81.0555 198.705C80.488 194.094 79.9914 189.483 79.4239 184.872C78.8564 180.19 78.3599 175.509 77.8633 170.827C77.154 164.939 76.4446 159.051 75.8062 153.164C75.6643 151.958 75.3096 151.958 74.3875 152.454C73.1816 153.093 71.9047 153.447 70.5569 153.802C69.7057 154.015 69.351 153.731 69.351 152.88C69.351 152.738 69.351 152.525 69.351 152.383C68.9963 136.494 68.7835 120.604 69.1382 104.714C69.2801 97.9045 69.0673 91.0237 70.4151 84.2848C71.3372 79.8158 72.8269 75.5596 74.8131 71.4454C77.0121 66.8345 79.8496 62.7202 82.9707 58.6769C82.6161 58.0385 81.8358 58.6059 81.4811 58.1094C81.8358 57.6128 82.4032 57.5419 82.8998 57.5419C86.6594 57.4 90.419 57.8256 94.1786 58.1094C94.8171 58.3931 94.7461 58.8897 94.6042 59.3862C92.9018 62.5074 90.5609 65.3449 89.0003 68.537C88.22 70.1685 87.2978 71.7291 86.5885 73.4316C83.0417 78.6099 79.9914 84.072 77.154 89.6759C73.5362 96.9114 71.4082 104.572 71.0535 112.588C70.7697 117.979 71.6919 123.3 73.2525 128.478C74.6712 133.373 76.7284 137.983 79.5658 142.24C80.417 143.516 81.4101 144.084 82.8998 144.013C85.8791 143.942 88.7875 144.013 91.7668 144.013C93.9658 144.013 94.0368 143.942 94.0368 141.459C94.0368 122.377 94.0368 103.296 94.0368 84.2138C94.0368 81.1636 93.8949 78.0424 94.5333 75.0631C95.952 70.0976 98.7895 65.9124 101.556 61.6562C102.265 60.5921 103.046 59.5281 103.755 58.4641C104.748 57.1163 105.812 55.7685 106.876 54.4207C107.444 53.7114 108.011 53.0729 109.004 52.9311C116.169 52.7183 123.404 52.7892 130.569 52.8601C132.91 52.8601 133.832 54.5626 133.619 57.6838C133.123 58.6769 133.548 59.7409 133.761 60.5921C134.328 62.2946 134.257 63.9261 134.257 65.6286C134.257 88.3991 134.257 111.17 134.257 133.94C134.257 134.649 134.47 135.359 133.974 135.997C133.406 135.217 133.619 134.295 133.619 133.443C133.619 110.815 133.619 88.1863 133.619 65.5577C133.619 64.9902 133.69 64.4227 133.619 64.068C133.619 76.1981 133.619 88.5409 133.619 100.884C133.619 111.666 133.619 122.519 133.619 133.302C133.619 134.082 133.69 134.862 133.548 135.572C133.264 136.281 132.697 136.281 132.058 136.281C128.015 136.565 123.901 136.423 119.857 136.281C118.581 136.21 118.013 135.713 118.013 134.437C118.013 133.302 118.013 132.167 118.013 131.103C118.013 117.199 118.013 103.225 118.013 89.3213C118.013 103.934 118.013 118.476 118.013 133.089C118.013 136.565 117.942 136.352 121.134 136.352C121.347 136.352 121.489 136.423 121.631 136.423C122.411 137.061 121.702 137.487 121.347 137.842C119.006 140.324 118.368 143.375 118.155 146.638C118.084 148.411 118.084 150.184 118.155 151.958C118.226 153.235 118.793 154.228 120.141 154.228C122.837 154.228 125.532 154.795 128.228 154.653C129.718 154.582 130.498 154.086 130.64 152.525C130.994 147.773 131.349 143.02 130.356 138.267C130.143 136.919 130.711 136.281 132.129 136.352C132.555 136.352 133.052 136.423 133.477 136.068C133.619 135.926 133.832 135.926 133.974 136.068C133.903 142.949 133.832 149.759 134.045 156.64C134.116 156.923 134.257 157.278 134.116 157.633C133.619 158.839 132.697 159.335 131.42 159.335C126.88 159.335 122.34 159.477 117.8 159.264C117.233 159.122 116.665 159.051 116.098 159.193C114.254 159.335 112.338 159.335 110.423 159.264C108.579 159.193 107.089 159.69 105.741 160.896C104.252 162.102 102.62 163.166 101.13 164.443C100.705 164.797 100.279 165.081 99.7116 165.081C98.5057 164.655 97.8673 163.662 97.087 162.811C96.023 161.463 94.8171 160.257 93.4693 159.193C92.7599 158.555 91.8377 158.058 90.9156 158.555C89.9225 159.122 90.0643 160.115 90.2062 161.109C90.7028 164.372 91.7668 167.351 93.6111 170.117C94.6042 171.607 95.5264 173.097 96.3067 174.657C96.3777 175.225 96.1648 175.721 95.8811 176.147C94.6042 178.133 94.8171 180.119 95.952 182.106C96.3067 182.744 97.0161 183.382 95.952 184.021C92.7599 184.517 89.5678 184.234 86.4466 184.163C86.021 184.163 85.6663 183.95 85.3116 183.666L85.1697 183.595H85.0279C84.6732 184.163 84.8151 184.872 84.8151 185.511C84.8151 198.776 84.8151 212.112 84.7441 225.377C84.7441 225.944 85.3116 226.795 84.2476 227.15Z" fill="url(#paint0_linear)"/>
<path d="M85.3117 183.595C89.0004 183.524 92.689 183.524 96.3777 183.453C96.6615 183.241 96.9452 183.099 97.2999 183.099C100.989 183.028 104.677 183.028 108.366 183.028C111.558 183.028 114.75 183.028 117.942 183.028C126.526 183.028 135.038 183.028 143.621 183.028C143.976 183.028 144.33 183.028 144.685 183.028C149.012 182.886 153.268 183.028 157.596 182.957C158.234 182.957 158.872 183.028 159.44 183.382C161.639 183.382 163.838 183.524 165.966 183.453C167.314 183.382 167.668 183.808 167.668 185.156C167.598 194.094 167.668 202.961 167.668 211.899C167.668 219.276 167.456 226.653 167.739 234.031C167.952 239.209 163.058 245.026 156.744 244.955C136.74 244.742 116.736 244.813 96.7324 244.813C96.023 244.813 95.3137 244.884 94.6043 244.884C94.5334 244.955 94.5334 244.955 94.4625 244.955C91.5541 245.522 87.0142 242.33 86.4467 239.422C84.957 236.443 85.1698 233.321 85.2408 230.129C85.4536 222.681 85.3117 215.304 85.3117 207.855C85.2408 199.84 85.2408 191.753 85.3117 183.595Z" fill="url(#paint1_linear)"/>
<path d="M133.548 57.7547C133.052 57.1163 132.981 56.336 132.91 55.6266C132.768 53.9241 131.846 53.4985 130.285 53.4985C122.979 53.5695 115.672 53.4985 108.366 53.4985C107.94 53.0729 107.869 52.5764 107.869 52.0089C107.94 48.8168 107.869 45.6246 108.082 42.4325C108.295 37.7507 108.437 32.998 108.579 28.3162C108.65 27.1103 108.082 26.4719 106.876 26.2591C104.961 25.9753 103.046 25.6916 101.059 25.5497C98.0802 25.4079 96.3777 23.9182 95.8102 21.0098C95.7393 20.5133 95.6683 20.0877 95.5265 19.5911C95.3136 18.8108 95.6683 17.6049 94.4624 17.463C93.1856 17.2502 91.9087 17.1793 90.9865 18.5271C90.0644 19.8039 89.4969 21.1517 88.8585 22.5704C85.3826 30.8699 86.8723 38.4601 91.8378 45.6956C92.689 46.9015 93.824 47.1852 95.2427 47.1852C97.5836 47.1852 97.7964 47.5399 97.9383 49.8808C98.222 53.2857 97.087 56.1232 94.5334 58.3222C90.2063 58.3931 85.8791 57.7547 81.4811 57.9675C75.9481 57.7547 70.4151 57.6838 64.8821 57.2581C62.1865 57.0453 61.3353 56.0522 61.7609 53.3567C61.9028 52.6473 61.9737 51.9379 61.9737 51.2286C61.9737 49.7389 62.6121 48.6749 63.818 47.8236C64.4565 47.3271 65.1658 46.8305 65.7333 46.2631C66.8683 45.27 67.152 44.064 66.6555 42.5744C66.0171 40.8719 65.0949 39.2404 64.6693 37.467C63.9599 34.3458 64.7402 33.1399 67.7905 32.7143C71.0535 32.2887 71.4082 31.6502 70.2023 28.529C69.6348 27.1103 68.8545 25.7625 68.3579 24.3438C67.5067 22.2157 67.9323 21.3645 70.0604 20.5842C70.6988 20.3714 71.2663 20.1586 71.9047 19.9458C74.0328 19.1655 74.4584 18.5271 74.3166 16.2571C74.2456 14.8384 74.1747 13.4197 73.891 12.0719C73.6072 10.795 74.1747 10.2985 75.2387 10.0147C76.2318 9.731 77.154 9.44725 78.1471 9.23444C79.6368 8.87976 80.3461 7.9576 80.488 6.46794C80.5589 5.90045 80.7008 5.33296 80.7718 4.69454C80.9846 3.6305 80.2752 2.0699 81.1974 1.50242C82.5452 0.651183 84.1767 0.0836954 85.8082 0.0127593C90.49 -0.129113 95.1008 0.934926 99.5698 2.0699C102.691 2.8502 105.528 1.99897 108.508 1.71522C110.778 1.43148 113.048 0.863991 115.247 0.225567C117.091 -0.341921 118.864 0.296503 120.567 0.934927C122.411 1.64429 124.114 2.42459 126.1 2.63739C127.944 2.77927 128.512 4.33986 128.866 5.90045C129.15 7.03543 129.434 8.24134 129.292 9.37632C128.937 12.9231 130.994 14.9803 133.903 16.1152C136.527 17.1083 137.166 18.9527 137.166 21.3645C137.166 23.3507 136.882 25.3369 136.527 27.3231C136.244 28.6 136.598 29.5222 137.946 29.8768C138.868 30.1606 139.72 30.5153 140.642 30.799C142.202 31.2246 142.699 32.2887 142.415 33.7783C141.99 35.9064 141.138 37.8217 140.429 39.8079C139.578 42.2197 140.003 42.8581 142.557 42.9291C143.054 42.9291 143.55 42.8581 143.621 43.4966C144.189 47.1143 145.749 50.6611 145.04 54.4207C144.827 55.5557 144.26 56.1941 143.125 56.4069C139.861 57.2581 136.669 57.4 133.548 57.7547Z" fill="#351621"/>
<path d="M140.997 274.677C139.72 274.677 138.656 274.677 138.017 273.116C134.541 264.391 130.995 255.666 127.377 246.941C126.738 245.522 126.951 245.168 128.512 245.168C134.683 245.239 140.926 245.239 147.097 245.168C148.729 245.168 149.225 245.806 149.438 247.225C150.573 254.389 151.85 261.483 152.985 268.576C153.339 270.563 153.978 272.549 153.694 274.677C153.198 275.174 152.559 275.245 151.921 275.245C148.87 275.245 145.82 275.245 142.77 275.245C142.132 275.245 141.564 275.103 140.997 274.677Z" fill="#213577"/>
<path d="M86.3757 239.564C88.2201 242.614 90.9156 244.6 94.5334 245.026C95.3137 245.593 96.2358 245.309 97.0871 245.309C99.9245 245.38 102.762 245.309 105.599 245.309C106.522 245.309 106.947 245.522 106.805 246.657C106.309 251.623 105.954 256.588 105.528 261.554C105.174 265.455 104.819 269.357 104.535 273.329C104.464 274.11 104.323 274.748 103.4 274.748C103.117 275.032 102.691 275.245 102.336 275.245C99.2152 275.386 96.023 275.386 92.9018 275.245C92.0506 275.245 91.4831 274.819 91.1284 274.039C90.8447 270.988 89.7097 268.151 89.2132 265.101C88.3619 259.922 87.8654 254.744 87.227 249.566C86.9432 247.296 86.6595 245.026 86.3757 242.756C86.0211 241.692 85.6664 240.557 86.3757 239.564Z" fill="#273A86"/>
<path d="M154.687 276.308C156.035 275.741 156.602 276.167 156.957 277.656C158.588 284.111 160.433 290.496 162.135 296.951C162.348 297.66 162.987 298.653 161.426 299.008C160.504 299.221 160.22 299.079 159.936 298.157C159.014 294.539 158.021 290.992 156.957 287.091C155.467 288.864 154.829 290.85 153.907 292.624C152.417 295.39 150.998 298.157 149.651 300.994C149.154 301.987 148.516 302.484 147.452 302.839C141.422 304.825 135.321 306.74 129.292 308.868C127.589 309.436 127.022 308.655 126.242 307.52C125.39 306.314 125.887 305.676 126.738 304.825C129.15 302.484 131.491 300.072 133.832 297.589C134.683 296.738 135.534 296.171 136.74 296.312C137.237 295.887 137.804 295.958 138.443 295.887C140.996 295.532 143.124 294.539 144.756 292.411C146.6 289.928 148.232 287.374 149.863 284.75C150.927 283.047 151.069 281.203 151.211 279.288C151.353 276.592 152.062 275.954 154.687 276.308Z" fill="#0C0D3C"/>
<path d="M103.329 280.352C105.245 280.068 105.599 280.99 105.599 282.764C105.528 289.29 105.528 295.887 105.528 302.413C105.528 303.193 105.812 304.115 104.393 304.115C103.046 304.115 103.259 303.193 103.259 302.413C103.259 298.866 103.259 295.248 103.259 291.276C102.053 292.482 101.06 293.404 100.208 294.397C97.5127 297.306 94.8881 300.214 92.1925 303.122C91.6959 303.69 91.1285 304.115 90.2772 304.186C83.7511 304.47 77.225 304.754 70.6989 305.25C68.7127 305.392 68.6417 304.115 68.1452 302.839C67.5777 301.491 68.6417 301.207 69.422 300.781C72.3304 299.079 75.2388 297.376 78.0762 295.603C79.0693 295.036 79.9915 294.681 81.0555 295.177C82.4743 294.752 83.822 295.177 85.2408 295.177C86.9432 295.177 88.4329 294.681 89.7807 293.617C92.0506 291.773 94.1787 289.857 96.3068 287.942C97.6546 286.807 98.5058 285.317 99.0733 283.686C99.357 282.906 99.6408 282.125 99.9955 281.416C100.918 279.855 101.556 279.642 103.329 280.352Z" fill="#0C0D3C"/>
<path d="M159.369 183.453C154.403 183.595 149.438 183.595 144.472 183.453C143.763 180.758 143.195 178.062 143.976 175.296C145.536 174.728 147.239 174.515 148.941 174.302C150.502 174.09 151.211 172.884 151.779 171.678C152.417 170.401 152.843 169.053 153.339 167.776C153.907 166.429 154.9 165.648 156.39 165.861C159.085 166.216 161.284 167.493 162.561 170.046C163.483 171.82 163.128 173.167 161.497 174.373C160.929 174.799 160.149 175.225 160.433 176.005C161.426 178.7 160.362 181.041 159.369 183.453Z" fill="#5ABE4F"/>
<path d="M103.329 280.352C101.769 280.21 100.492 280.494 100.137 282.267C99.1441 286.878 95.5264 289.361 92.2633 292.127C92.0505 292.269 91.8377 292.411 91.6958 292.553C88.7165 295.887 85.0279 296.171 80.9845 295.107C84.3894 291.489 87.5815 287.729 90.4899 283.757C91.1283 282.835 91.3412 281.983 91.1284 280.777C90.6318 278.507 90.9155 276.167 90.9865 273.897C91.6249 274.535 92.4052 274.606 93.2564 274.606C96.5904 274.606 99.9244 274.606 103.329 274.606C103.329 276.592 103.329 278.507 103.329 280.352Z" fill="#672B33"/>
<path d="M154.687 276.309C151.779 276.947 151.708 276.947 151.637 280.139C151.566 283.757 149.367 286.311 147.664 289.148C147.026 290.212 146.175 291.134 145.465 292.127C143.408 295.319 140.429 296.525 136.74 296.312C138.726 292.198 140.784 288.155 142.486 283.899C143.124 282.267 143.337 280.919 142.344 279.217C141.564 277.869 141.422 276.238 140.996 274.677C145.253 274.677 149.509 274.677 153.694 274.677C153.765 275.386 153.907 276.025 154.687 276.309Z" fill="#672B33"/>
<path d="M148.941 174.373C147.523 175.579 145.749 175.225 144.118 175.508C143.834 175.65 143.55 175.65 143.337 175.508C143.054 175.154 142.983 174.657 142.983 174.231C142.557 172.387 142.486 170.472 141.422 168.769C141.28 168.628 141.209 168.486 141.138 168.344C141.067 167.918 140.926 167.422 140.784 166.996C140.145 165.01 140.287 164.939 142.344 165.223C144.543 165.648 145.395 166.57 145.182 168.698C145.04 170.117 145.182 171.11 146.742 171.749C147.877 172.032 148.516 173.167 148.941 174.373Z" fill="#20481D"/>
<path d="M84.2476 227.15C84.815 226.582 84.6022 225.802 84.6022 225.093C84.6022 211.899 84.6022 198.775 84.6022 185.581C84.6022 184.943 84.3185 184.163 84.9569 183.595C84.9569 199.201 84.9569 214.807 84.9569 230.342C84.5313 229.278 84.1057 228.285 84.2476 227.15Z" fill="#63679A"/>
<path d="M133.903 157.278C133.903 157.065 133.974 156.781 133.974 156.568C136.385 158.2 138.088 160.47 139.507 162.953C139.294 163.165 139.436 163.662 139.01 163.733C138.443 163.591 138.159 163.094 137.946 162.669C136.953 160.895 135.605 159.335 134.186 157.916C133.974 157.774 133.903 157.561 133.903 157.278Z" fill="#89758B"/>
<path d="M142.344 165.081C140.996 164.939 140.5 165.364 141.209 166.641C141.493 167.138 141.706 167.705 141.28 168.273C139.79 167.776 139.861 166.428 139.649 165.223C139.719 164.939 139.932 164.726 140.216 164.655C140.996 164.868 141.777 164.513 142.344 165.081Z" fill="#565F37"/>
<path d="M140.287 164.726C140.145 164.868 140.074 165.01 139.932 165.081C139.72 165.081 139.507 164.939 139.365 164.726C139.223 164.371 138.939 164.087 139.223 163.662C139.223 163.378 139.294 163.094 139.578 162.953C139.791 163.591 140.003 164.158 140.287 164.726Z" fill="#8B7575"/>
<path d="M94.9587 74.7082C94.0366 88.5408 94.675 102.373 94.5331 116.135C94.4622 125.002 94.5331 133.869 94.6041 142.736C94.6041 144.226 94.1784 144.651 92.6888 144.58C89.071 144.509 85.4533 144.509 81.9065 144.58C80.9134 144.58 80.275 144.296 79.7075 143.445C74.3873 135.642 71.4789 127.059 70.6986 117.695C69.8474 107.906 72.1883 98.7556 76.3735 89.9595C79.2819 84.0009 82.4031 78.1841 86.3755 72.8639C86.8011 72.3673 87.2976 72.0836 87.8651 72.5092C88.5036 72.9348 88.5036 73.5733 88.4326 74.2826C88.1489 76.5526 87.7942 78.8225 86.943 81.3053C89.2129 79.1063 91.1991 77.0491 93.2563 75.0629C93.6819 74.7792 94.1075 73.7151 94.9587 74.7082Z" fill="#8296DE"/>
<path d="M94.4622 58.3929C94.8878 57.6126 95.2425 56.7614 95.81 56.123C97.6543 53.9239 97.3706 51.2993 97.2997 48.7456C97.2997 47.8234 96.6612 47.6106 96.0228 47.7525C93.0435 48.32 91.4829 46.6175 90.2061 44.3476C85.0987 35.4806 85.0987 26.5426 90.8445 17.8884C91.412 17.0372 94.9588 16.4697 95.6681 17.0372C96.0228 17.321 95.9519 17.6756 95.9519 18.0303C96.0937 19.0944 96.1647 20.1584 96.3066 21.1515C96.6612 23.3505 98.4346 24.982 100.705 24.982C102.975 24.982 105.174 25.4077 107.373 25.6914C108.578 25.8333 109.146 26.3298 109.146 27.7486C108.862 36.2609 108.295 44.8441 108.366 53.3565C106.947 55.1299 105.528 56.9033 104.11 58.6767C102.336 59.457 100.35 59.5988 98.5056 59.5279C97.0868 59.457 95.6681 60.3082 94.2494 59.386C94.2494 59.1023 94.3913 58.7476 94.4622 58.3929Z" fill="url(#paint2_linear)"/>
<path d="M133.903 157.278C134.045 157.42 134.116 157.561 134.257 157.703C135.18 158.909 135.109 160.399 135.322 161.747C135.605 163.165 135.889 164.655 136.173 166.074C135.747 167.351 134.967 168.486 134.683 169.833C133.264 170.401 132.484 171.536 131.988 172.884C131.704 173.735 131.491 174.586 131.278 175.437C131.065 176.147 131.065 177.14 130.143 177.282C129.221 177.494 129.15 176.43 128.724 175.934C127.731 174.728 126.455 174.515 125.036 174.799C123.05 175.225 121.134 175.721 119.361 176.643C118.581 177.069 117.8 177.494 116.878 177.565C115.743 177.494 115.105 176.714 114.324 176.005C113.828 175.437 113.048 175.437 112.409 175.295C110.21 174.799 109.926 174.444 110.281 172.174C110.352 171.891 110.352 171.607 110.352 171.323C111.274 166.854 113.119 162.882 116.098 159.477C116.453 159.193 116.736 158.909 117.233 158.838C121.773 158.838 126.313 158.767 130.782 158.838C132.129 158.767 133.193 158.484 133.903 157.278Z" fill="#213577"/>
<path d="M130.711 138.196C131.278 139.331 131.491 140.537 131.42 141.814C131.278 145.644 131.562 149.475 131.065 153.305C130.924 154.724 130.214 155.15 129.079 155.221C125.887 155.504 122.766 154.795 119.574 154.795C118.368 154.795 117.588 153.873 117.659 152.667C117.73 149.404 117.304 146.07 118.226 142.807C118.864 140.395 119.929 138.338 121.915 136.777C121.915 135.997 122.553 136.281 122.979 136.281C124.752 136.281 126.526 136.281 128.299 136.281C130.356 136.21 130.356 136.21 130.711 138.196Z" fill="url(#paint3_linear)"/>
<path d="M94.1786 59.4569C97.4416 59.2441 100.776 58.9604 104.039 58.7476C101.627 62.3653 99.1441 65.9121 97.0869 69.7426C96.2357 71.3742 95.7392 73.0766 94.9589 74.7082C94.1076 74.2826 93.9658 75.1338 93.6111 75.4175C91.2702 77.6875 89.0002 80.0284 86.5175 82.2274C87.1559 79.7446 87.7234 77.2619 88.0781 74.7082C88.3618 72.9348 88.0071 72.5091 86.3756 72.8638C88.2199 68.1111 90.9155 63.9259 93.8239 59.8116C93.9658 59.8116 94.0367 59.5988 94.1786 59.4569Z" fill="#0050DC"/>
<path d="M95.9521 174.373C93.1856 170.259 90.4191 166.145 89.7807 161.037C89.6388 159.832 89.3551 158.555 90.561 157.774C91.8379 156.994 92.9019 157.845 93.895 158.626C96.0231 160.399 97.6546 162.669 99.5699 164.655C101.84 166.57 103.471 169.124 105.316 171.465C106.522 173.026 108.011 174.373 108.579 176.36C108.579 176.572 108.508 176.714 108.437 176.856C108.366 177.069 108.224 177.282 108.082 177.424C107.586 177.92 107.444 178.842 106.663 178.842C105.67 178.771 105.812 177.707 105.458 177.14C103.755 173.522 101.343 172.6 97.5837 174.09C97.0871 174.373 96.5906 174.799 95.9521 174.373Z" fill="#F0963F"/>
<path d="M108.366 176.36C105.954 172.884 103.329 169.55 100.634 166.287C100.208 165.79 99.9245 165.223 99.4989 164.726C101.414 163.307 103.4 161.96 105.245 160.47C106.592 159.335 108.011 158.555 109.856 158.696C111.913 158.838 113.97 158.696 116.027 158.696C116.169 158.838 116.169 158.98 116.169 159.193C113.828 162.101 112.055 165.294 110.92 168.84C110.707 169.55 110.21 170.33 110.707 171.181C110.636 171.678 110.565 172.245 110.494 172.742C110.281 173.877 110.494 174.586 111.913 174.799C112.835 174.941 114.112 174.515 114.608 175.792C113.119 176.289 111.629 175.721 110.139 176.076C109.926 176.076 109.785 176.005 109.643 175.934C108.721 174.941 109.714 173.948 109.643 173.096C109.359 174.019 109.288 175.083 109.146 176.076C109.075 176.36 108.792 176.572 108.366 176.36Z" fill="#213576"/>
<path d="M95.952 174.373C96.5195 174.09 97.1579 173.877 97.7254 173.593C101.272 171.961 104.606 173.38 105.883 177.14C106.238 178.559 106.451 180.048 105.954 181.467C105.599 182.886 104.606 183.382 103.187 183.311C101.13 183.311 99.0732 183.098 97.016 183.453C96.8032 183.453 96.5904 183.453 96.3067 183.382C94.3914 180.828 93.4692 178.204 95.5973 175.295C95.8101 175.083 95.8811 174.728 95.952 174.373Z" fill="#D84942"/>
<path d="M133.903 136.068C133.761 136.068 133.69 136.068 133.548 136.068C133.335 136.068 133.264 135.855 133.193 135.713C133.193 111.24 133.193 86.7675 133.193 62.2946C133.406 62.2946 133.69 62.2946 133.903 62.2946C133.903 86.8384 133.903 111.453 133.903 136.068Z" fill="#22307B"/>
<path d="M133.194 135.713C133.335 135.855 133.406 135.926 133.548 136.068C133.406 137.061 132.626 136.777 132.059 136.777C130.924 136.706 130.64 137.203 130.711 138.196C130.498 136.423 129.292 136.281 127.873 136.423C125.887 136.635 123.83 135.997 121.844 136.777C117.588 136.777 117.588 136.777 117.588 132.592C117.588 118.05 117.588 103.508 117.588 88.9665C117.588 88.3281 117.375 87.6187 117.942 86.7675C118.51 87.5478 118.297 88.2571 118.297 88.8955C118.297 103.863 118.368 118.76 118.297 133.727C118.297 135.501 118.723 136.139 120.567 136.068C124.185 135.926 127.802 136.068 131.349 135.997C131.917 135.997 132.626 136.281 133.194 135.713Z" fill="#1E2972"/>
<path d="M116.098 159.051C116.098 158.909 116.098 158.839 116.098 158.697C116.452 158.626 116.807 158.129 117.162 158.697C116.949 158.909 116.665 159.193 116.452 159.406C116.311 159.406 116.169 159.264 116.098 159.051Z" fill="#454971"/>
<path d="M143.763 183.453C135.109 183.453 126.454 183.453 117.871 183.524C117.8 183.24 117.871 183.098 118.155 182.956C118.864 182.602 119.645 182.673 120.425 182.673C126.383 182.673 132.413 182.673 138.372 182.673C139.649 182.886 139.719 181.892 139.79 181.112C139.861 179.835 140.5 178.913 141.351 178.062C142.202 177.14 142.77 177.282 143.266 178.487C143.621 179.268 143.621 180.048 143.621 180.899C143.621 181.609 143.55 182.318 143.905 182.956C143.905 183.098 143.905 183.311 143.763 183.453Z" fill="#5ABE4F"/>
<path d="M117.942 183.24C117.942 183.311 117.871 183.453 117.871 183.524C114.679 183.524 111.487 183.524 108.295 183.524C108.153 183.382 108.082 183.169 108.011 183.028C107.586 180.899 108.153 178.842 108.366 176.785C108.366 176.643 108.437 176.501 108.437 176.36C108.65 176.289 108.862 176.147 109.075 176.076C109.288 175.934 109.43 175.508 109.856 175.721C109.997 175.721 110.068 175.792 110.139 175.792C110.139 177.353 109.856 178.913 109.643 180.474C109.43 182.389 109.714 182.673 111.558 182.673C112.764 182.673 114.041 182.602 115.247 182.673C116.665 182.744 117.375 182.247 117.233 180.758C117.162 180.261 117.162 179.694 117.588 179.268C119.006 180.19 119.148 181.467 117.942 183.24Z" fill="#B4614D"/>
<path d="M108.295 183.24C108.295 183.382 108.295 183.453 108.295 183.595C104.535 183.595 100.776 183.595 97.016 183.595C98.9313 183.028 100.917 183.382 102.904 183.311C104.251 183.311 105.174 182.886 105.457 181.467C105.812 180.9 106.238 180.971 106.45 181.467C106.876 182.389 107.585 182.744 108.295 183.24Z" fill="#EC9044"/>
<path d="M143.763 183.453C143.763 183.382 143.763 183.24 143.763 183.17C143.266 181.893 143.266 180.616 143.266 179.339C143.195 178.63 143.55 177.849 143.124 177.14C142.983 176.856 142.841 176.573 142.77 176.218C142.77 176.076 142.841 175.863 142.841 175.721C142.983 175.508 143.124 175.367 143.408 175.296C143.621 175.296 143.834 175.367 144.047 175.367C143.763 178.062 144.685 180.687 144.401 183.382C144.259 183.453 144.047 183.453 143.763 183.453Z" fill="#6BA050"/>
<path d="M134.541 169.692C134.257 168.202 134.967 167.209 135.96 166.287C136.74 164.868 138.017 164.584 139.507 164.797C139.649 164.939 139.72 165.01 139.861 165.152C140.216 166.287 140.5 167.422 141.28 168.344C141.351 168.344 141.493 168.344 141.564 168.344C142.202 170.401 142.628 172.6 143.124 174.728C143.195 175.012 143.195 175.225 143.054 175.508C142.557 175.863 142.131 175.65 141.777 175.366C139.578 173.522 137.237 171.891 134.825 170.401C134.754 170.117 134.612 169.904 134.541 169.692Z" fill="#1F471D"/>
<path d="M143.054 174.728C142.273 172.671 141.564 170.543 141.635 168.344C142.983 169.975 142.841 172.103 143.408 174.019C143.196 174.161 143.337 174.586 143.054 174.728Z" fill="#535D35"/>
<path d="M143.054 174.728C143.125 174.444 143.125 174.161 143.408 174.019C143.408 174.444 143.408 174.941 143.479 175.367C143.337 175.508 143.195 175.65 143.125 175.792C143.054 175.721 142.983 175.65 142.983 175.579C142.983 175.508 143.054 175.437 143.054 175.437C143.054 175.154 143.054 174.941 143.054 174.728Z" fill="#7B7049"/>
<path d="M139.507 164.797C138.301 165.293 137.024 165.506 135.96 166.287C134.896 164.442 135.038 162.314 134.612 160.328C134.399 159.477 134.399 158.555 134.257 157.703C136.456 159.193 137.591 161.676 139.223 163.733C139.294 164.088 139.436 164.442 139.507 164.797Z" fill="#7A71AF"/>
<path d="M143.054 175.366C143.054 175.508 143.054 175.65 143.124 175.721C143.124 175.863 143.124 175.934 143.124 176.076C141.351 177.707 139.861 179.623 139.507 182.105C139.436 182.531 139.223 182.886 138.868 183.169C131.917 183.169 124.965 183.169 118.013 183.169C118.226 181.822 118.722 180.474 117.658 179.197C116.949 178.7 116.594 178.133 116.807 177.282C119.361 176.147 121.773 174.87 124.539 174.302C127.306 173.735 128.724 174.373 129.859 176.998C130.64 176.856 130.569 176.147 130.711 175.65C131.136 174.09 131.491 172.6 132.271 171.181C132.768 170.188 133.477 169.55 134.612 169.692C137.308 171.039 139.79 172.813 142.06 174.87C142.273 175.154 142.628 175.437 143.054 175.366Z" fill="#479541"/>
<path d="M116.807 177.282C117.091 177.92 117.375 178.559 117.659 179.197C117.729 183.17 117.729 183.17 113.615 183.17C112.835 183.17 112.055 183.099 111.345 183.17C109.572 183.453 108.721 182.744 109.146 180.971C109.572 179.268 109.004 177.282 110.139 175.721C111.7 174.941 113.19 175.296 114.75 175.721C115.389 176.289 116.098 176.785 116.807 177.282Z" fill="#D84942"/>
<path d="M116.098 159.051C116.24 159.193 116.382 159.335 116.453 159.406C113.686 162.882 111.7 166.712 110.778 171.11C109.856 170.685 110.139 170.046 110.352 169.337C111.7 165.648 113.331 162.031 116.098 159.051Z" fill="#5A5467"/>
<path d="M108.295 183.24C107.231 183.453 106.45 183.169 106.309 181.963C106.238 181.467 106.025 181.183 105.528 181.467C105.883 180.048 105.954 178.629 105.883 177.211C106.45 177.565 106.025 178.346 106.734 178.771C107.302 178.204 107.515 177.211 108.366 176.785C109.004 177.424 108.862 178.204 108.65 178.913C108.153 180.332 108.437 181.822 108.295 183.24Z" fill="#D94F41"/>
<path d="M109.785 175.721C109.501 175.863 109.288 176.005 109.004 176.076C109.004 174.515 109.359 173.026 110.068 171.607C110.352 173.026 109.572 174.373 109.785 175.721Z" fill="#766460"/>
<path d="M138.797 183.169C139.294 180.828 140.003 178.488 141.848 176.785C142.202 176.43 142.486 176.076 143.054 176.147C143.054 176.43 143.125 176.714 143.408 176.856C143.692 177.565 143.692 178.275 143.408 178.984C143.479 180.403 143.621 181.822 143.692 183.24C142.841 183.098 143.054 182.389 143.054 181.822C143.054 181.396 143.054 180.97 143.054 180.616C143.054 179.552 143.125 178.488 142.131 177.778C141.422 178.771 140.358 179.339 140.145 180.687C140.074 181.609 140.571 183.098 138.797 183.169Z" fill="#59BE4E"/>
<path d="M143.479 178.913C143.479 178.204 143.479 177.495 143.479 176.785C143.976 177.495 143.976 178.204 143.479 178.913Z" fill="#829153"/>
<defs>
<filter id="filter0_f" x="0" y="270.13" width="189.884" height="56.7913" filterUnits="userSpaceOnUse" color-interpolation-filters="sRGB">
<feFlood flood-opacity="0" result="BackgroundImageFix"/>
<feBlend mode="normal" in="SourceGraphic" in2="BackgroundImageFix" result="shape"/>
<feGaussianBlur stdDeviation="7.5" result="effect1_foregroundBlur"/>
</filter>
<linearGradient id="paint0_linear" x1="75.6643" y1="62.2945" x2="109.004" y2="113.014" gradientUnits="userSpaceOnUse">
<stop stop-color="#1973EF"/>
<stop offset="1" stop-color="#0D26C8"/>
</linearGradient>
<linearGradient id="paint1_linear" x1="85.1882" y1="213.989" x2="167.746" y2="213.989" gradientUnits="userSpaceOnUse">
<stop stop-color="#FBED96"/>
<stop offset="1" stop-color="#ABECD6"/>
</linearGradient>
<linearGradient id="paint2_linear" x1="86.7315" y1="33.2732" x2="123.894" y2="35.4337" gradientUnits="userSpaceOnUse">
<stop stop-color="#672B33"/>
<stop offset="1" stop-color="#380A10"/>
</linearGradient>
<linearGradient id="paint3_linear" x1="119.573" y1="137.846" x2="124.527" y2="155.288" gradientUnits="userSpaceOnUse">
<stop stop-color="#07D38E"/>
<stop offset="1" stop-color="#06AEC1"/>
</linearGradient>
</defs>
</svg>
